<svg xmlns="http://www.w3.org/2000/svg" style="display: none;"><symbol id="facebook" viewBox="0 0 512 512"><title>facebook</title><path d="M288,176v-64c0-17.664,14.336-32,32-32h32V0h-64c-53.024,0-96,42.976-96,96v80h-64v80h64v256h96V256h64l32-80H288z"/></symbol><symbol id="github-image" viewBox="0 0 24 24"><title>github-image</title><path d="m12 .5c-6.63 0-12 5.28-12 11.792 0 5.211 3.438 9.63 8.205 11.188.6.111.82-.254.82-.567 0-.28-.01-1.022-.015-2.005-3.338.711-4.042-1.582-4.042-1.582-.546-1.361-1.335-1.725-1.335-1.725-1.087-.731.084-.716.084-.716 1.205.082 1.838 1.215 1.838 1.215 1.07 1.803 2.809 1.282 3.495.981.108-.763.417-1.282.76-1.577-2.665-.295-5.466-1.309-5.466-5.827 0-1.287.465-2.339 1.235-3.164-.135-.298-.54-1.497.105-3.121 0 0 1.005-.316 3.3 1.209.96-.262 1.98-.392 3-.398 1.02.006 2.04.136 3 .398 2.28-1.525 3.285-1.209 3.285-1.209.645 1.624.24 2.823.12 3.121.765.825 1.23 1.877 1.23 3.164 0 4.53-2.805 5.527-5.475 5.817.42.354.81 1.077.81 2.182 0 1.578-.015 2.846-.015 3.229 0 .309.21.678.825.56 4.801-1.548 8.236-5.97 8.236-11.173 0-6.512-5.373-11.792-12-11.792z"/></symbol><symbol id="plus" viewBox="0 0 612 612"><title>plus</title><path d="M306,0C136.992,0,0,136.992,0,306s136.992,306,306,306s306-137.012,306-306S475.008,0,306,0z M306,573.75 C158.125,573.75,38.25,453.875,38.25,306C38.25,158.125,158.125,38.25,306,38.25c147.875,0,267.75,119.875,267.75,267.75 C573.75,453.875,453.875,573.75,306,573.75z M420.75,286.875h-95.625V191.25c0-10.557-8.568-19.125-19.125-19.125 c-10.557,0-19.125,8.568-19.125,19.125v95.625H191.25c-10.557,0-19.125,8.568-19.125,19.125c0,10.557,8.568,19.125,19.125,19.125 h95.625v95.625c0,10.557,8.568,19.125,19.125,19.125c10.557,0,19.125-8.568,19.125-19.125v-95.625h95.625 c10.557,0,19.125-8.568,19.125-19.125C439.875,295.443,431.307,286.875,420.75,286.875z"/></symbol><symbol id="studying" viewBox="0 0 511.5 511.5"><title>studying</title><g><path d="m404.75 353.356h-15v-15h15zm-45 0h-15v-15h15zm-45 0h-15v-15h15z"/></g><g><path d="m511.5 287.091v-58.33h-47.155c28.619-17.627 47.495-49.121 47.151-85.128-.519-53.897-45.319-97.746-99.869-97.746h-289.087v15h289.087c46.358 0 84.431 37.185 84.869 82.89.447 46.525-37.197 84.51-83.706 84.51h-397.79v-28.33h397.79c30.531 0 55.37-24.839 55.37-55.38 0-30.525-24.834-55.364-55.37-55.37l-397.79.009v-28.33h92.54v-15h-107.54v58.33h20.07v80.741h-20.07v58.33h47.218c-28.301 17.372-47.218 48.604-47.218 84.174 0 54.429 44.281 98.71 98.71 98.71h14.394v39.443l41.304-15.49 41.304 15.49v-39.448h221.308v-15h-221.308v-28.33h300.788v28.33h-64.48v15h79.48v-58.33h-20.07v-80.745zm-476.43-118.278h88.28v-15h-88.28v-18.453h212.091v-15h-212.091v-16.146l377.728-.009c22.256.004 40.362 18.114 40.362 40.38 0 22.26-18.11 40.37-40.37 40.37h-377.72zm78.03 242.358h-14.39c-46.158 0-83.71-37.552-83.71-83.71 0-46.152 37.552-83.7 83.71-83.7h397.79v28.33h-397.79c-30.59 0-55.37 24.763-55.37 55.37 0 30.537 24.839 55.38 55.37 55.38h14.39zm67.612 32.797-26.304-9.864-26.304 9.864v-125.728h18.804v33.875h15v-33.875h18.804zm295.718-140.728h-88.28v15h88.28v49.596h-280.718v-16.144h72.293v-15h-72.293v-18.452h155.112v-15h-256.701v15h18.981v18.452h-18.628v15h18.628v16.149h-14.394c-22.26 0-40.37-18.114-40.37-40.38 0-22.303 18.053-40.37 40.37-40.37h377.72z"/><path d="m160.675 153.813h256.701v15h-256.701z"/><path d="m290.896 120.36h126.128v15h-126.128z"/></g></symbol></svg>