<svg xmlns="http://www.w3.org/2000/svg" style="display: none;"><symbol id="calendar" viewBox="0 0 128 128"><title>calendar</title><path d="m121.693 14.088h-22.429v-7.781a1.75 1.75 0 0 0 -1.75-1.75h-7.462a1.749 1.749 0 0 0 -1.75 1.75v7.781h-18.821v-7.781a1.749 1.749 0 0 0 -1.75-1.75h-7.462a1.749 1.749 0 0 0 -1.75 1.75v7.781h-18.819v-7.781a1.749 1.749 0 0 0 -1.75-1.75h-7.464a1.75 1.75 0 0 0 -1.75 1.75v7.781h-22.429a1.749 1.749 0 0 0 -1.75 1.75v105.855a1.749 1.749 0 0 0 1.75 1.75h115.386a1.749 1.749 0 0 0 1.75-1.75v-105.855a1.749 1.749 0 0 0 -1.75-1.75zm-29.893-6.031h3.962v15.562h-3.962zm-29.783 0h3.962v15.562h-3.96zm-29.783 0h3.966v15.562h-3.964zm-24.177 9.531h20.679v7.781a1.75 1.75 0 0 0 1.75 1.75h7.462a1.749 1.749 0 0 0 1.75-1.75v-7.781h18.821v7.781a1.749 1.749 0 0 0 1.75 1.75h7.462a1.749 1.749 0 0 0 1.75-1.75v-7.781h18.819v7.781a1.749 1.749 0 0 0 1.75 1.75h7.462a1.75 1.75 0 0 0 1.75-1.75v-7.781h20.679v20.025h-111.884zm0 102.355v-78.83h111.886v78.83z"/><path d="m27.66 49.015a8.033 8.033 0 1 0 8.033 8.033 8.041 8.041 0 0 0 -8.033-8.033zm0 12.566a4.533 4.533 0 1 1 4.533-4.533 4.537 4.537 0 0 1 -4.533 4.533z"/><path d="m51.887 49.015a8.033 8.033 0 1 0 8.033 8.033 8.042 8.042 0 0 0 -8.033-8.033zm0 12.566a4.533 4.533 0 1 1 4.533-4.533 4.538 4.538 0 0 1 -4.533 4.533z"/><path d="m76.113 49.015a8.033 8.033 0 1 0 8.033 8.033 8.042 8.042 0 0 0 -8.033-8.033zm0 12.566a4.533 4.533 0 1 1 4.533-4.533 4.537 4.537 0 0 1 -4.533 4.533z"/><path d="m100.34 49.015a8.033 8.033 0 1 0 8.032 8.033 8.041 8.041 0 0 0 -8.032-8.033zm0 12.566a4.533 4.533 0 1 1 4.532-4.533 4.537 4.537 0 0 1 -4.532 4.533z"/><path d="m27.66 72.5a8.034 8.034 0 1 0 8.033 8.033 8.042 8.042 0 0 0 -8.033-8.033zm0 12.567a4.534 4.534 0 1 1 4.533-4.534 4.538 4.538 0 0 1 -4.533 4.529z"/><path d="m51.887 72.5a8.034 8.034 0 1 0 8.033 8.033 8.043 8.043 0 0 0 -8.033-8.033zm0 12.567a4.534 4.534 0 1 1 4.533-4.534 4.539 4.539 0 0 1 -4.533 4.529z"/><path d="m76.113 72.5a8.034 8.034 0 1 0 8.033 8.033 8.043 8.043 0 0 0 -8.033-8.033zm0 12.567a4.534 4.534 0 1 1 4.533-4.534 4.538 4.538 0 0 1 -4.533 4.529z"/><path d="m100.34 72.5a8.034 8.034 0 1 0 8.032 8.033 8.042 8.042 0 0 0 -8.032-8.033zm0 12.567a4.534 4.534 0 1 1 4.532-4.534 4.538 4.538 0 0 1 -4.532 4.529z"/><path d="m27.66 95.976a8.033 8.033 0 1 0 8.033 8.033 8.041 8.041 0 0 0 -8.033-8.033zm0 12.566a4.533 4.533 0 1 1 4.533-4.533 4.537 4.537 0 0 1 -4.533 4.533z"/><path d="m51.887 95.976a8.033 8.033 0 1 0 8.033 8.033 8.042 8.042 0 0 0 -8.033-8.033zm0 12.566a4.533 4.533 0 1 1 4.533-4.533 4.538 4.538 0 0 1 -4.533 4.533z"/><path d="m76.113 95.976a8.033 8.033 0 1 0 8.033 8.033 8.042 8.042 0 0 0 -8.033-8.033zm0 12.566a4.533 4.533 0 1 1 4.533-4.533 4.537 4.537 0 0 1 -4.533 4.533z"/><path d="m100.34 95.976a8.033 8.033 0 1 0 8.032 8.033 8.041 8.041 0 0 0 -8.032-8.033zm0 12.566a4.533 4.533 0 1 1 4.532-4.533 4.537 4.537 0 0 1 -4.532 4.533z"/></symbol><symbol id="paper" viewBox="0 0 512 512"><title>paper</title><path d="m448 0h-332v52h-52v460h332v-52h52zm-372 500v-436h228v80h80v356zm240-427.515 59.515 59.515h-59.515zm120 375.515h-40v-312.485l-83.515-83.515h-184.485v-40h308z"/><path d="m118 116h96v12h-96z"/><path d="m118 148h64v12h-64z"/><path d="m118 196h224v12h-224z"/><path d="m118 228h224v12h-224z"/><path d="m118 292h224v12h-224z"/><path d="m118 324h160v12h-160z"/><path d="m118 260h224v12h-224z"/><path d="m262 372h80v12h-80z"/></symbol><symbol id="collaboration" viewBox="0 0 512 512"><title>collaboration</title><path d="m71.35 194.672c2.636-6.094 5.556-11.991 8.702-17.66 3.997-7.257 8.391-14.145 13.124-20.693 2.41-3.345 7.115-4.082 10.46-1.672 3.345 2.437 4.082 7.115 1.673 10.459-4.479 6.18-8.532 12.558-12.189 19.163-1.898 3.401-3.685 6.888-5.357 10.403h27.326c4.167 0 7.512 3.345 7.512 7.483v35.518 30.132c0 6.945-1.502 13.55-4.195 19.531 7.881 3.288 14.6 7.483 19.73 12.331 7.37 6.916 11.594 15.222 11.594 24.236v36.595c0 4.139-3.374 7.512-7.513 7.512h-46.574c2.466 4.223 5.102 8.362 7.88 12.359 5.188 7.455 10.856 14.457 16.979 20.948 2.835 3.004 2.693 7.738-.34 10.573-3.005 2.835-7.738 2.692-10.573-.312-6.661-7.115-12.812-14.684-18.368-22.649-4.649-6.69-8.901-13.663-12.729-20.92h-70.98c-4.138 0-7.512-3.373-7.512-7.512v-36.595c0-8.957 4.167-17.178 11.424-24.094 5.159-4.904 11.962-9.156 19.899-12.473-2.693-5.981-4.195-12.586-4.195-19.531v-30.132-12.982c0-8.277 3.373-15.789 8.816-21.231 5.442-5.414 12.955-8.788 21.204-8.788h14.202zm398.527 61.824-39.572-13.408-25.881 12.699v12.019c0 8.986 3.686 17.178 9.609 23.103 5.925 5.924 14.117 9.609 23.103 9.609 9.015 0 17.178-3.685 23.131-9.609 5.925-5.924 9.61-14.117 9.61-23.103zm-65.453-17.348 21.657-10.602c1.785-1.049 3.997-1.332 6.122-.624l37.674 12.756v-15.987c0-4.139-1.674-7.88-4.423-10.602-2.722-2.749-6.463-4.422-10.602-4.422h-35.434c-4.11 0-7.852 1.672-10.602 4.422-2.721 2.721-4.394 6.463-4.394 10.602v14.457zm-362.301-8.986h65.481v-20.494h-50.457c-4.11 0-7.88 1.672-10.602 4.422-2.721 2.721-4.423 6.463-4.423 10.602v5.47zm65.481 14.995h-65.481v22.649c0 8.986 3.686 17.178 9.639 23.103 5.925 5.924 14.117 9.609 23.103 9.609 8.985 0 17.178-3.685 23.102-9.609 5.953-5.924 9.638-14.117 9.638-23.103v-22.649zm181.136 148.338c-10.715 1.559-28.177 1.389-42.661-11.395-5.074 2.948-13.097 6.236-22.819 5.443v18.17c0 8.986 3.686 17.178 9.638 23.131 5.925 5.924 14.116 9.609 23.102 9.609 9.014 0 17.178-3.685 23.131-9.609 5.924-5.953 9.609-14.145 9.609-23.131zm-65.48-20.977c10.914 1.531 18.596-5.613 18.596-5.641l.028.028.17-.17c3.118-2.693 7.823-2.353 10.545.766 11.735 13.493 28.006 12.5 36.142 10.913v-15.817c0-4.11-1.701-7.88-4.422-10.602-2.722-2.721-6.463-4.422-10.602-4.422h-35.434c-4.109 0-7.88 1.701-10.602 4.422-2.721 2.722-4.422 6.492-4.422 10.602v9.921zm-113.303-72.453c-9.043 9.836-21.713 15.477-35.093 15.477s-26.051-5.641-35.094-15.449c-7.455 2.778-13.635 6.378-18.028 10.545-4.28 4.082-6.747 8.617-6.747 13.266v29.112h119.738v-29.112c0-4.677-2.495-9.241-6.86-13.351-4.394-4.139-10.518-7.71-17.916-10.488zm374.915-32.259c0 6.945-1.502 13.55-4.195 19.531 7.938 3.316 14.712 7.568 19.871 12.444 7.285 6.917 11.452 15.137 11.452 24.123v36.595c0 4.139-3.345 7.512-7.483 7.512h-71.265c-3.855 7.001-8.192 13.861-12.926 20.523-5.641 7.909-11.82 15.449-18.482 22.536-2.835 3.005-7.569 3.147-10.573.312-3.005-2.835-3.147-7.568-.34-10.573 6.235-6.604 11.99-13.634 17.206-20.948 2.749-3.855 5.357-7.795 7.823-11.849h-46.177c-4.139 0-7.512-3.373-7.512-7.512v-36.595c0-9.014 4.223-17.263 11.564-24.207 5.131-4.848 11.878-9.071 19.787-12.359-2.722-5.981-4.224-12.586-4.224-19.531v-43.115c0-8.277 3.401-15.789 8.815-21.231 5.442-5.414 12.954-8.788 21.203-8.788h4.904c-1.616-3.458-3.373-6.86-5.244-10.205-3.714-6.69-7.88-13.21-12.444-19.446-2.438-3.345-1.728-8.022 1.616-10.459 3.316-2.438 7.993-1.73 10.46 1.615 4.875 6.69 9.383 13.72 13.436 21.033 3.146 5.641 6.01 11.48 8.59 17.461h14.116c8.276 0 15.79 3.374 21.232 8.788 5.414 5.442 8.787 12.954 8.787 21.231v43.114zm-12.643 32.287c-9.043 9.808-21.686 15.449-35.094 15.449-13.38 0-26.022-5.641-35.093-15.449-7.398 2.75-13.55 6.35-17.943 10.488-4.338 4.11-6.804 8.674-6.804 13.323v29.112h119.709v-29.112c0-4.649-2.467-9.184-6.775-13.266-4.365-4.167-10.544-7.767-18-10.545zm-168.493 105.619c0 6.945-1.502 13.578-4.195 19.531 7.937 3.345 14.712 7.568 19.871 12.472 2.806 2.665 5.159 5.528 6.974 8.561 6.009-2.551 11.849-5.414 17.546-8.589 7.88-4.394 15.478-9.411 22.733-14.939 3.289-2.523 7.966-1.899 10.488 1.389 2.495 3.288 1.871 7.994-1.417 10.488-7.767 5.925-15.959 11.339-24.548 16.129-6.604 3.685-13.408 7.002-20.353 9.865.028.396.028.822.028 1.219v36.595c0 4.139-3.346 7.483-7.483 7.483h-134.732c-4.139 0-7.512-3.345-7.512-7.483v-36.595c0-.397.028-.794.028-1.19-7.144-2.92-14.088-6.208-20.806-9.865-8.561-4.649-16.725-9.921-24.492-15.732-3.316-2.466-3.968-7.143-1.502-10.46 2.467-3.289 7.172-3.969 10.46-1.474 7.172 5.357 14.74 10.205 22.677 14.542 5.84 3.203 11.878 6.066 18.086 8.646 1.814-3.004 4.139-5.839 6.916-8.504 5.159-4.932 11.962-9.184 19.985-12.529-2.723-5.981-4.225-12.586-4.225-19.559v-43.115c0-8.249 3.373-15.76 8.816-21.203 5.443-5.442 12.955-8.815 21.203-8.815h35.434c8.277 0 15.789 3.373 21.203 8.815 5.443 5.443 8.816 12.954 8.816 21.203v43.114zm-12.643 32.287c-9.042 9.836-21.713 15.449-35.093 15.449-13.379 0-26.051-5.613-35.093-15.449-7.483 2.778-13.664 6.435-18.086 10.63-4.252 4.053-6.689 8.589-6.689 13.21v29.083h119.736v-29.083c0-4.649-2.466-9.213-6.746-13.266-4.394-4.168-10.573-7.797-18.029-10.574zm-164.411-297.525c-2.977 2.863-7.711 2.778-10.573-.199-2.863-2.976-2.778-7.71.198-10.573 5.953-5.726 12.19-11.055 18.738-15.959 5.414-4.053 11.14-7.88 17.121-11.452 1.928-25.597 13.096-48.614 30.218-65.708 18.821-18.85 44.873-30.5 73.616-30.5 28.772 0 54.795 11.65 73.646 30.5 16.978 16.979 28.119 39.827 30.16 65.197 5.867 3.6 11.537 7.512 16.979 11.65 6.549 4.989 12.842 10.403 18.795 16.214 2.977 2.863 3.033 7.597.17 10.573-2.892 2.948-7.625 3.005-10.573.142-5.528-5.358-11.368-10.375-17.463-15.024-2.607-2.013-5.271-3.912-7.937-5.754-2.324 28.488-15.052 47.849-27.27 66.388-11.055 16.809-21.656 32.91-21.826 54.539l.028 34.667c0 9.978-4.082 19.021-10.658 25.597-6.55 6.548-15.62 10.63-25.569 10.63h-36.935c-9.979 0-19.049-4.082-25.599-10.63-6.548-6.577-10.629-15.619-10.629-25.597l.027-34.667c-.198-21.628-10.771-37.73-21.826-54.539-12.189-18.482-24.86-37.729-27.241-66.047-2.806 1.871-5.556 3.827-8.249 5.839-6.179 4.594-11.962 9.526-17.348 14.713zm89.632 123.336h79.371v-15.194h-79.371zm79.059 14.995h-78.746c.766 4.393 2.891 8.334 5.924 11.367 3.855 3.855 9.156 6.236 14.996 6.236h36.935c5.811 0 11.111-2.381 14.967-6.236 3.033-3.033 5.158-6.974 5.924-11.367zm-46.602-111.373c-1.219-4.479-3.345-10.602-5.754-17.604-6.775-19.587-15.789-45.666-15.789-65.367 0-18.907 7.229-32.4 28.771-32.4s28.8 13.493 28.8 32.4c0 19.701-9.014 45.78-15.789 65.367-2.438 7.03-4.563 13.21-5.811 17.689-1.077 3.997-5.188 6.321-9.156 5.244-2.691-.738-4.619-2.835-5.272-5.329zm-6.547-82.971c0 16.384 7.568 39.203 13.776 57.26 6.236-18.057 13.805-40.876 13.805-57.26 0-10.148-3.486-17.405-13.805-17.405-10.318.001-13.776 7.258-13.776 17.405zm6.293 109.446c0-4.139 3.345-7.483 7.483-7.483s7.512 3.345 7.512 7.483v7.795c0 4.139-3.373 7.484-7.512 7.484s-7.483-3.345-7.483-7.484zm-32.571 39.714h80.107c1.985-22.422 12.757-38.806 23.982-55.843 12.273-18.652 25.114-38.183 25.114-67.549 0-24.633-9.977-46.914-26.106-63.043-16.129-16.129-38.41-26.107-63.043-26.107-24.605 0-46.886 9.978-63.015 26.107-16.13 16.129-26.107 38.41-26.107 63.043 0 29.367 12.841 48.897 25.115 67.549 11.196 17.037 21.997 33.42 23.953 55.843z"/></symbol><symbol id="clinic" viewBox="0 0 512 512"><title>clinic</title><path d="m509.07 104.43c-1.86-1.86-4.44-2.93-7.07-2.93h-270v-43c0-5.522-4.477-10-10-10h-172c-5.523 0-10 4.478-10 10v250h-30c-5.523 0-10 4.478-10 10v135c0 5.522 4.477 10 10 10h492c5.523 0 10-4.478 10-10v-151c0-5.521-4.49-10-10-10s-10 4.479-10 10v91h-220v-25h30c5.523 0 10-4.478 10-10v-40c0-5.522-4.477-10-10-10h-70v-187h260v91c0 5.51 4.49 10 10 10 5.52 0 10-4.49 10-10v-101c0-2.63-1.07-5.21-2.93-7.07zm-489.07 224.07h232v115h-20v-85c0-5.522-4.477-10-10-10h-172c-5.523 0-10 4.478-10 10v85h-20zm40 40h66v27.5h-10c-5.523 0-10 4.478-10 10s4.477 10 10 10h10v27.5h-66zm86 75v-27.5h10c5.523 0 10-4.478 10-10s-4.477-10-10-10h-10v-27.5h66v75zm346-30v30h-220v-30zm-200-65h-20v-20h20zm-232-40v-240h152v240z"/><circle cx="502" cy="257.5" r="10"/><path d="m472 157.5c0-5.522-4.477-10-10-10h-40c-5.523 0-10 4.478-10 10v41c0 5.522 4.477 10 10 10h40c5.523 0 10-4.478 10-10zm-20 31h-20v-21h20z"/><path d="m392 157.5c0-5.522-4.477-10-10-10h-40c-5.523 0-10 4.478-10 10v41c0 5.522 4.477 10 10 10h40c5.523 0 10-4.478 10-10zm-20 31h-20v-21h20z"/><path d="m312 157.5c0-5.522-4.477-10-10-10h-40c-5.523 0-10 4.478-10 10v41c0 5.522 4.477 10 10 10h40c5.523 0 10-4.478 10-10zm-20 31h-20v-21h20z"/><path d="m472 238.5c0-5.522-4.477-10-10-10h-40c-5.523 0-10 4.478-10 10v40c0 5.522 4.477 10 10 10h40c5.523 0 10-4.478 10-10zm-20 30h-20v-20h20z"/><path d="m392 238.5c0-5.522-4.477-10-10-10h-40c-5.523 0-10 4.478-10 10v40c0 5.522 4.477 10 10 10h40c5.523 0 10-4.478 10-10zm-20 30h-20v-20h20z"/><path d="m302 228.5h-40c-5.523 0-10 4.478-10 10v40c0 5.522 4.477 10 10 10h40c5.523 0 10-4.478 10-10v-40c0-5.522-4.477-10-10-10zm-10 40h-20v-20h20z"/><path d="m462 308.5h-40c-5.523 0-10 4.478-10 10v40c0 5.522 4.477 10 10 10h40c5.523 0 10-4.478 10-10v-40c0-5.522-4.477-10-10-10zm-10 40h-20v-20h20z"/><path d="m382 308.5h-40c-5.523 0-10 4.478-10 10v40c0 5.522 4.477 10 10 10h40c5.523 0 10-4.478 10-10v-40c0-5.522-4.477-10-10-10zm-10 40h-20v-20h20z"/><path d="m182 101.5h-92c-5.523 0-10 4.478-10 10s4.477 10 10 10h92c5.523 0 10-4.478 10-10s-4.477-10-10-10z"/><path d="m182 141.5h-92c-5.523 0-10 4.478-10 10s4.477 10 10 10h92c5.523 0 10-4.478 10-10s-4.477-10-10-10z"/><path d="m182 181.5h-92c-5.523 0-10 4.478-10 10s4.477 10 10 10h92c5.523 0 10-4.478 10-10s-4.477-10-10-10z"/><path d="m182 221.5h-92c-5.523 0-10 4.478-10 10s4.477 10 10 10h92c5.523 0 10-4.478 10-10s-4.477-10-10-10z"/><path d="m182 261.5h-92c-5.523 0-10 4.478-10 10s4.477 10 10 10h92c5.523 0 10-4.478 10-10s-4.477-10-10-10z"/></symbol><symbol id="construction" viewBox="0 0 64 64"><title>construction</title><path d="m59.477 47 3.451-8.628-1.857-.743-3.748 9.371h-.323v-12h-2v-16h-4v-4h-2v4h-2v-6h-2v6h-2v-4h-2v4h-4v12h-4v5.129c-2.357-2.894-5.574-5.002-9.225-5.968l-.454-1.361c1.458-.403 2.656-1.434 3.255-2.8h.424c2.206 0 4-1.794 4-4v-5c1.103 0 2-.897 2-2v-2c0-1.103-.897-2-2-2h-.174c-.957-5.76-5.883-10-11.826-10s-10.869 4.24-11.826 10h-.174c-1.103 0-2 .897-2 2v2c0 1.103.897 2 2 2v5c0 2.206 1.794 4 4 4h.424c.6 1.366 1.797 2.398 3.255 2.8l-.454 1.361c-7.815 2.061-13.225 9.047-13.225 17.181v.658c0 4.264 2.444 7.961 6 9.786v5.214h30v-8h3.101c.465 2.279 2.484 4 4.899 4s4.434-1.721 4.899-4h5.019c4.015 0 7.409-2.875 8.069-6.835l.194-1.165zm-12.477 0v-10h8v10zm-8-26h14v14h-6v-4h-8zm6 12v14h-10v-14zm-12 6.676v7.324h-.323l-3.749-9.372-1.857.743 3.452 8.629h-3.703l.194 1.165c.265 1.59.976 3.001 1.986 4.125v8.71h-5v-2c1.654 0 3-1.346 3-3s-1.346-3-3-3v-20.673c3.813 1.212 7.038 3.828 9 7.349zm-11.721-10.676.617 1.852-2.896 4.345-2.897-4.345.618-1.852zm.721 10.149-1.762-2.203 1.762-2.643zm-6 0v-4.846l1.762 2.643zm0 3.201 3-3.75 3 3.75v8.826c-.314-.111-.649-.176-1-.176h-1.171c-.801 0-1.555.312-2.122.879l-1.026 1.026-.681-.152zm2 12.064 1.121-1.121c.189-.189.441-.293.708-.293h1.171c.551 0 1 .449 1 1v1h2c.551 0 1 .449 1 1s-.449 1-1 1h-6zm4 4.586v2h-6v-2zm5-35v-4c1.103 0 2 .897 2 2s-.897 2-2 2zm2-5.444c-.591-.344-1.268-.556-2-.556v-1h2zm-.204-7.556h-6.796v-7.542c3.435 1.065 6.07 3.914 6.796 7.542zm-8.796-7.95v7.95h-2v-7.95c.329-.032.662-.05 1-.05s.671.018 1 .05zm-4 .408v7.542h-6.796c.726-3.628 3.361-6.477 6.796-7.542zm-9.001 9.542h.001 24v2h-24zm4.001 4v1c-.732 0-1.409.212-2 .556v-1.556zm-2 5c0-1.103.897-2 2-2v4c-1.103 0-2-.897-2-2zm4 2v-7h12v7c0 1.654-1.346 3-3 3h-6c-1.654 0-3-1.346-3-3zm-10 24v-.658c0-6.96 4.464-12.968 11-15.029v19.997l-1.085-.241c-2.305-.513-3.915-2.52-3.915-4.882v-4.187h-2v4.187c0 3.306 2.254 6.116 5.481 6.833l3.519.782v2.198h-4c-4.962 0-9-4.038-9-9zm6 10.574c.955.271 1.959.426 3 .426h2v2h-5zm22 2.426v-7.086c1.183.68 2.55 1.068 4 1.083v6.003zm14-4c-1.654 0-3-1.346-3-3 0-.551.449-1 1-1h4c.551 0 1 .449 1 1 0 1.654-1.346 3-3 3zm9.917-4h-5.102c-.414-1.161-1.514-2-2.816-2h-4c-1.302 0-2.402.839-2.816 2h-5.102c-2.624 0-4.896-1.625-5.785-4h31.404c-.887 2.375-3.158 4-5.783 4z"/><path d="m49 23h2v2h-2z"/><path d="m45 23h2v2h-2z"/><path d="m41 23h2v2h-2z"/><path d="m49 27h2v2h-2z"/><path d="m41 27h2v2h-2z"/><path d="m45 27h2v2h-2z"/><path d="m49 31h2v2h-2z"/><path d="m37 35h2v10h-2z"/><path d="m41 35h2v10h-2z"/><path d="m49 39h4v2h-4z"/><path d="m49 43h4v2h-4z"/></symbol><symbol id="process" viewBox="0 0 128 128"><title>process</title><path d="M67.472,75.293,62.7,71.52a1.75,1.75,0,1,0-2.17,2.746l.181.143a10.953,10.953,0,0,1-4.454-18.192,1.75,1.75,0,0,0-2.475-2.474A14.441,14.441,0,0,0,61.62,78.2l-1.092.863a1.75,1.75,0,1,0,2.17,2.746l4.774-3.773a1.75,1.75,0,0,0,0-2.746Z"/><path d="M64,40.417A23.583,23.583,0,1,0,87.583,64,23.609,23.609,0,0,0,64,40.417Zm0,43.666A20.083,20.083,0,1,1,84.083,64,20.105,20.105,0,0,1,64,84.083Z"/><path d="M102.568,56.976H95.632a31.951,31.951,0,0,0-4.3-10.374L96.239,41.7a1.749,1.749,0,0,0,0-2.475l-7.46-7.459a1.75,1.75,0,0,0-2.474,0L81.4,36.667a31.937,31.937,0,0,0-10.374-4.3V25.432a1.749,1.749,0,0,0-1.75-1.75H58.726a1.749,1.749,0,0,0-1.75,1.75v6.936a31.937,31.937,0,0,0-10.374,4.3L41.7,31.761a1.75,1.75,0,0,0-2.474,0l-7.46,7.459a1.749,1.749,0,0,0,0,2.475L36.667,46.6a31.951,31.951,0,0,0-4.3,10.374H25.432a1.749,1.749,0,0,0-1.75,1.75V69.274a1.749,1.749,0,0,0,1.75,1.75h6.936a31.951,31.951,0,0,0,4.3,10.374l-4.906,4.907a1.749,1.749,0,0,0,0,2.475l7.46,7.459a1.75,1.75,0,0,0,2.474,0L46.6,91.333a31.937,31.937,0,0,0,10.374,4.3v6.936a1.749,1.749,0,0,0,1.75,1.75H69.274a1.749,1.749,0,0,0,1.75-1.75V95.632a31.937,31.937,0,0,0,10.374-4.3l4.907,4.906a1.75,1.75,0,0,0,2.474,0l7.46-7.459a1.749,1.749,0,0,0,0-2.475L91.333,81.4a31.951,31.951,0,0,0,4.3-10.374h6.936a1.749,1.749,0,0,0,1.75-1.75V58.726A1.749,1.749,0,0,0,102.568,56.976Zm-1.75,10.548H94.192a1.75,1.75,0,0,0-1.724,1.452,28.529,28.529,0,0,1-4.821,11.635,1.75,1.75,0,0,0,.194,2.245l4.686,4.686-4.985,4.985-4.687-4.686a1.751,1.751,0,0,0-2.245-.194,28.545,28.545,0,0,1-11.634,4.822,1.75,1.75,0,0,0-1.452,1.724v6.625H60.476V94.193a1.75,1.75,0,0,0-1.452-1.724A28.545,28.545,0,0,1,47.39,87.647a1.751,1.751,0,0,0-2.245.194l-4.687,4.686-4.985-4.985,4.686-4.686a1.75,1.75,0,0,0,.194-2.245,28.529,28.529,0,0,1-4.821-11.635,1.75,1.75,0,0,0-1.724-1.452H27.182V60.476h6.626a1.75,1.75,0,0,0,1.724-1.452,28.529,28.529,0,0,1,4.821-11.635,1.75,1.75,0,0,0-.194-2.245l-4.686-4.686,4.985-4.985,4.687,4.686a1.749,1.749,0,0,0,2.245.194,28.545,28.545,0,0,1,11.634-4.822,1.75,1.75,0,0,0,1.452-1.724V27.182h7.048v6.625a1.75,1.75,0,0,0,1.452,1.724A28.545,28.545,0,0,1,80.61,40.353a1.749,1.749,0,0,0,2.245-.194l4.687-4.686,4.985,4.985-4.686,4.686a1.75,1.75,0,0,0-.194,2.245,28.529,28.529,0,0,1,4.821,11.635,1.75,1.75,0,0,0,1.724,1.452h6.626Z"/><path d="M66.38,49.76l1.092-.863a1.75,1.75,0,1,0-2.17-2.746l-4.774,3.773a1.75,1.75,0,0,0,0,2.746L65.3,56.443a1.75,1.75,0,1,0,2.17-2.746l-.181-.143a10.952,10.952,0,0,1,4.454,18.191A1.75,1.75,0,0,0,74.22,74.22a14.441,14.441,0,0,0-7.84-24.46Z"/></symbol><symbol id="buildings" viewBox="0 0 511 511"><title>buildings</title><path d="m465.5 450.664v-31.381c16.957-3.48 29.749-18.52 29.749-36.49 0-20.539-16.709-37.249-37.249-37.249s-37.249 16.71-37.249 37.249c0 17.971 12.792 33.01 29.749 36.49v31.381h-44.762v-405.328h-210.014v64.066l-89.974 67.01v274.252h-45.583v-31.381c16.957-3.48 29.749-18.52 29.749-36.49 0-20.539-16.71-37.249-37.249-37.249s-37.249 16.71-37.249 37.249c0 17.971 12.792 33.01 29.749 36.49v31.381h-45.167v15h511v-15zm-29.748-67.871c0-12.269 9.98-22.249 22.249-22.249s22.249 9.98 22.249 22.249-9.98 22.249-22.249 22.249-22.249-9.98-22.249-22.249zm-405.334 0c0-12.269 9.98-22.249 22.249-22.249s22.249 9.98 22.249 22.249-9.981 22.249-22.249 22.249-22.249-9.98-22.249-22.249zm90.332-187.115h59.25v-15h-54.865l70.589-52.572v262.054h15v-276.992-14.938-37.894h180.014v45.332h-165.738v15h165.738v329.996h-15.75v-75.005h-149.515v75.005h-14.749v-15.504h-15v15.504h-74.974zm239.238 254.986h-119.515v-60.005h119.515z"/><path d="m195.724 405.16h15v15h-15z"/><path d="m135.5 210.681v44.997h44.997v-44.997zm29.997 29.997h-14.997v-14.997h14.997z"/><path d="m135.5 315.679h44.997v-44.997h-44.997zm15-29.997h14.997v14.997h-14.997z"/><path d="m135.5 375.679h44.997v-44.996h-44.997zm15-29.996h14.997v14.996h-14.997z"/><path d="m135.5 435.68h44.997v-44.997h-44.997zm15-29.997h14.997v14.997h-14.997z"/><path d="m255 165.012h-14.527v-14.333h119.515v14.333h-89.988v15h104.988v-44.333h-149.515v44.333h29.527z"/><path d="m374.988 196.022h-29.988v15h14.988v14.332h-119.515v-14.332h90.258v-15h-105.258v44.332h149.515z"/><path d="m374.988 255.365h-104.988v15h89.988v15.333h-119.515v-15.333h14.527v-15h-29.527v45.333h149.515z"/><path d="m374.988 315.709h-29.988v15h14.988v15.333h-119.515v-15.333h89.527v-15h-104.527v45.333h149.515z"/><path d="m263.231 75h15v15h-15z"/><path d="m293.231 75h15v15h-15z"/><path d="m323.231 75h15v15h-15z"/></symbol><symbol id="screw" viewBox="0 0 300 300"><title>screw</title><path d="m73.516 132.484c.781.781 1.805 1.172 2.828 1.172s2.047-.391 2.828-1.172l2.828-2.828 2.828 2.828c.781.781 1.805 1.172 2.828 1.172s2.047-.391 2.828-1.172c1.562-1.562 1.562-4.094 0-5.656l-2.828-2.828 2.828-2.828c1.562-1.562 1.562-4.094 0-5.656s-4.094-1.562-5.656 0l-2.828 2.828-2.828-2.828c-1.562-1.562-4.094-1.562-5.656 0s-1.562 4.094 0 5.656l2.828 2.828-2.828 2.828c-1.563 1.563-1.563 4.094 0 5.656z"/><path d="m213.516 60.484c.781.781 1.805 1.172 2.828 1.172s2.047-.391 2.828-1.172l2.828-2.828 2.828 2.828c.781.781 1.805 1.172 2.828 1.172s2.047-.391 2.828-1.172c1.562-1.562 1.562-4.094 0-5.656l-2.828-2.828 2.828-2.828c1.562-1.562 1.562-4.094 0-5.656s-4.094-1.562-5.656 0l-2.828 2.828-2.828-2.828c-1.562-1.562-4.094-1.562-5.656 0s-1.562 4.094 0 5.656l2.828 2.828-2.828 2.828c-1.563 1.563-1.563 4.094 0 5.656z"/><circle cx="250" cy="92" r="4"/><path d="m210 136c6.617 0 12-5.383 12-12s-5.383-12-12-12-12 5.383-12 12 5.383 12 12 12zm0-16c2.207 0 4 1.795 4 4s-1.793 4-4 4-4-1.795-4-4 1.793-4 4-4z"/><path d="m192.425 167.231 4.403-4.403c1.562-1.562 1.562-4.094 0-5.656s-4.094-1.562-5.656 0l-12 12c-1.562 1.562-1.562 4.094 0 5.656l12 12c.781.781 1.805 1.172 2.828 1.172s2.047-.391 2.828-1.172c1.562-1.562 1.562-4.094 0-5.656l-6.084-6.084c29.249 4.044 39.256 10.498 39.256 12.912 0 2.818-17.225 12.734-64 15.355v-116.423c0-2.209-1.789-4-4-4s-4 1.791-4 4v72.189l-32-6.4v-76.721h12v48c0 2.209 1.789 4 4 4s4-1.791 4-4v-48h26.848c7.254 0 13.152-5.9 13.152-13.152v-22.848c0-2.209-1.789-4-4-4h-80c-2.209 0-4 1.791-4 4v22.848c0 7.252 5.9 13.152 13.152 13.152h6.848v88.683c-19.83 1.166-72 5.901-72 23.317 0 14.995 39.172 21.271 72 23.249v40.751c0 1.906 1.346 3.549 3.215 3.922l40 8c.262.053.523.078.785.078.918 0 1.816-.314 2.535-.906.926-.76 1.465-1.895 1.465-3.094v-48.751c32.827-1.977 72-8.253 72-23.249 0-11.749-23.981-17.745-45.575-20.769zm-86.425-104.383v-18.848h32v8c0 2.209 1.789 4 4 4s4-1.791 4-4v-8h32v18.848c0 2.842-2.312 5.152-5.152 5.152h-61.695c-2.842 0-5.153-2.311-5.153-5.152zm20 162.031 32 6.4v7.842l-32-6.4zm32-33.758-32-6.4v-7.842l32 6.4zm-15.617 12.877-16.383-3.277v-7.842l32 6.4v4.441c-4.915.174-10.108.273-15.617.278zm15.617-36.719v7.842l-32-6.4v-7.842zm-104 20.721c0-3.462 18.523-12.596 64-15.285v30.641c-46.775-2.622-64-12.538-64-15.356zm87.596 23.998 16.404 3.281v7.842l-32-6.4v-5.068c5.605.231 10.891.339 15.596.345zm-15.596 36.723v-7.842l32 6.4v7.842z"/></symbol><symbol id="petroleum" viewBox="0 0 64 64"><title>petroleum</title><path d="m39 8c0-.551.449-1 1-1h5c1.654 0 3-1.346 3-3s-1.346-3-3-3h-6v2h6c.551 0 1 .449 1 1s-.449 1-1 1h-5c-1.654 0-3 1.346-3 3v1h2z"/><path d="m23 7h9c.551 0 1 .449 1 1v1h2v-1c0-1.654-1.346-3-3-3h-9c-.551 0-1-.449-1-1s.449-1 1-1h12v-2h-12c-1.654 0-3 1.346-3 3s1.346 3 3 3z"/><path d="m63 43v-13.414l-4.917-4.917-11.937 9.284-.993-6.953h2.847v-6h-3.704l-1.429-10h-13.734l-1.429 10h-3.704v6h2.847l-1.714 12h-4.133v-12h-4v-20h-10v20h-4v22h-2v6h4v6h-4v2h62v-2h-4v-6h4v-6h-12v-4.63l10-11.667v10.297zm-2.362-12.948-1.464 1.708-3.041-3.041 1.784-1.387zm-8.878 3.971-2.914.364 3.332-2.591zm2.795-4.054 3.293 3.293-4.004.5zm-18.555.986-5.085-3.955h10.171zm7.254-3.108 1.406 9.844-7.031-5.469zm-8.883 4.375-7.031 5.469 1.406-9.844zm1.629 1.267 7.085 5.511h-14.17zm10.867 5.511-.33-2.309 4.836-.604-.818 4.362c-.527-.865-1.47-1.449-2.555-1.449zm6.589-3.174 2.501-.313-3.126 3.647zm-12.323-22.826.286 2h-10.838l.286-2zm-10.837 4h11.409l.572 4h-12.553zm-4.296 6h20v2h-20zm-11-.586v3.172l-1.586-1.586zm-3 .172-2.586-2.586 2.586-2.586 2.586 2.586zm3-5-1.586-1.586 1.586-1.586zm-3-3-1.586-1.586h3.172zm-1.414 1.414-1.586 1.586v-3.172zm0 8-1.586 1.586v-3.172zm1.414 1.414 1.586 1.586h-3.172zm3-16.414v2h-6v-2zm4 20v2h-14v-2zm-14 4h14v6h-3c-1.654 0-3 1.346-3 3v7h-8zm2 22h2v6h-2zm46 0v6h-18v-6zm-20 6h-2v-6h2zm-4 0h-18v-6h18zm28 0h-2v-6h2zm4-8h-58v-2h58zm-40-4h-2v-4h2zm8 0h-2v-4h2zm8 0h-2v-4h2zm8 0h-2v-4h2zm2 0v-6h-6v6h-2v-6h-6v6h-2v-6h-6v6h-2v-6h-6v6h-2v-7c0-.551.449-1 1-1h32c.551 0 1 .449 1 1v7z"/></symbol><symbol id="crane" viewBox="0 0 511.996 511.996"><title>crane</title><path d="m415.237 306.257c4.143 0 7.5-3.357 7.5-7.5s-3.357-7.5-7.5-7.5h-4.535c-4.143 0-7.5 3.357-7.5 7.5s3.357 7.5 7.5 7.5z"/><path d="m99.752 424.058c13.353 0 24.216-10.863 24.216-24.216 0-13.354-10.863-24.217-24.216-24.217-13.354 0-24.217 10.863-24.217 24.217 0 13.352 10.863 24.216 24.217 24.216zm0-33.433c5.082 0 9.216 4.135 9.216 9.217s-4.134 9.216-9.216 9.216-9.217-4.134-9.217-9.216 4.135-9.217 9.217-9.217z"/><path d="m189.364 287.292c-4.143 0-7.5 3.357-7.5 7.5v4.702c0 4.143 3.357 7.5 7.5 7.5s7.5-3.357 7.5-7.5v-4.702c0-4.142-3.357-7.5-7.5-7.5z"/><path d="m338.892 230.451h12.685c4.143 0 7.5-3.357 7.5-7.5s-3.357-7.5-7.5-7.5h-12.685c-4.143 0-7.5 3.357-7.5 7.5s3.357 7.5 7.5 7.5z"/><path d="m338.892 251.652h12.685c4.143 0 7.5-3.357 7.5-7.5s-3.357-7.5-7.5-7.5h-12.685c-4.143 0-7.5 3.357-7.5 7.5s3.357 7.5 7.5 7.5z"/><path d="m338.892 272.853h12.685c4.143 0 7.5-3.357 7.5-7.5s-3.357-7.5-7.5-7.5h-12.685c-4.143 0-7.5 3.357-7.5 7.5s3.357 7.5 7.5 7.5z"/><path d="m484.043 197.261c-3.984-10.55-14.231-17.639-25.499-17.639h-6.472v-13.279c0-15.594-12.687-28.28-28.28-28.28-15.595 0-28.281 12.687-28.281 28.28v13.279h-72.574c-11.192 0-20.299 9.106-20.299 20.299v20.999c0 4.143 3.357 7.5 7.5 7.5s7.5-3.357 7.5-7.5v-20.999c0-2.922 2.377-5.299 5.299-5.299h56.74v69.163c0 7.945 6.465 14.41 14.411 14.41h102.908v71.792h-9.142c-4.143 0-7.5 3.357-7.5 7.5s3.357 7.5 7.5 7.5h9.142v10.186c0 1.391-1.131 2.521-2.521 2.521h-29.07c-8.529-19.243-27.8-32.707-50.167-32.707s-41.639 13.464-50.167 32.707c-15.147 0-32.278 0-47.432 0 0-37.306 0-84.522 0-126.787 0-4.143-3.357-7.5-7.5-7.5s-7.5 3.357-7.5 7.5v33.385h-6.916c-10.523 0-19.085 8.562-19.085 19.085v19.999h-43.2v-21.921c0-12.995-5.656-24.691-14.633-32.764v-30.932c2.839-1.069 4.861-3.801 4.861-7.013s-2.023-5.945-4.861-7.013v-33.913c2.839-1.069 4.861-3.801 4.861-7.013s-2.023-5.945-4.861-7.013v-45.017c0-16.233-13.206-29.439-29.439-29.439-2.382 0-4.695.292-6.914.828l-35.551-19.819c-3.617-2.017-8.187-.719-10.203 2.898-2.017 3.618-.719 8.187 2.898 10.203l27.954 15.584c-3.358 3.707-5.78 8.273-6.909 13.322l-76.863-42.849 2.021-3.627c1.411-2.531 3.723-4.36 6.511-5.152 2.784-.793 5.717-.451 8.247.959l12.697 7.079c3.618 2.017 8.187.72 10.203-2.898s.72-8.186-2.898-10.203l-12.698-7.079c-6.03-3.362-13.01-4.175-19.651-2.287s-12.15 6.248-15.512 12.278c-18.491 33.171-30.744 55.149-32.661 58.589-2.017 3.618-.719 8.187 2.898 10.203 1.156.645 2.409.95 3.646.95 2.632 0 5.186-1.388 6.558-3.849l3.017-5.411v57.162c0 4.143 3.357 7.5 7.5 7.5 10.778 0 19.548 8.77 19.548 19.548s-8.77 19.548-19.548 19.548c-10.779 0-19.549-8.77-19.549-19.548 0-4.143-3.357-7.5-7.5-7.5s-7.5 3.357-7.5 7.5c0 19.05 15.499 34.548 34.549 34.548s34.548-15.498 34.548-34.548c0-16.476-11.591-30.294-27.048-33.728v-77.39l5.32-9.542 83.45 46.521v34.665c-2.839 1.069-4.861 3.801-4.861 7.013s2.023 5.945 4.861 7.013v33.913c-2.839 1.069-4.861 3.801-4.861 7.013s2.023 5.945 4.861 7.013v30.932c-8.977 8.074-14.634 19.77-14.634 32.765v21.921h-21.323v-12.042c0-4.143-3.357-7.5-7.5-7.5s-7.5 3.357-7.5 7.5v12.042h-93.969v-12.042c0-4.143-3.357-7.5-7.5-7.5s-7.5 3.357-7.5 7.5v19.542 33.308c0 15.179 11.924 27.622 26.896 28.462v7.657h-19.396c-4.143 0-7.5 3.357-7.5 7.5s3.357 7.5 7.5 7.5h26.896c4.143 0 7.5-3.357 7.5-7.5v-15.108h3.482c-.306 2.342-.481 4.724-.481 7.147 0 10.612 3.049 20.921 8.817 29.812 2.256 3.477 6.901 4.463 10.374 2.21 3.475-2.255 4.464-6.899 2.21-10.374-4.188-6.455-6.401-13.94-6.401-21.648 0-21.976 17.879-39.854 39.854-39.854s39.854 17.879 39.854 39.854-17.879 39.854-39.854 39.854c-4.663 0-9.232-.799-13.581-2.375-3.896-1.413-8.195.602-9.606 4.495-1.412 3.895.601 8.195 4.495 9.606 5.993 2.172 12.281 3.273 18.692 3.273 30.247 0 54.854-24.607 54.854-54.854 0-2.424-.175-4.806-.481-7.147h46.983v10.376c0 8.815 7.172 15.987 15.987 15.987h104.726c8.815 0 15.987-7.172 15.987-15.987v-10.376h23.056c-.306 2.342-.481 4.724-.481 7.147 0 30.247 24.607 54.854 54.854 54.854s54.854-24.607 54.854-54.854c0-2.424-.175-4.806-.481-7.147h24.864c9.661 0 17.521-7.86 17.521-17.521v-98.88c.002-9.362-2.948-10.662-27.951-79.032zm-192.406 106.116c0-2.253 1.832-4.085 4.085-4.085h6.916v24.084h-11.001zm-87.833-80.132h-28.879v-32.939h28.879zm0-92.47v44.53h-28.879c0-6.186 0-38.13 0-44.53 0-7.962 6.478-14.439 14.439-14.439s14.44 6.478 14.44 14.439zm-28.879 107.47h28.879v21.58c-4.527-1.575-9.383-2.442-14.439-2.442-5.057 0-9.912.867-14.439 2.442v-21.58zm-14.634 63.21c0-16.03 13.042-29.072 29.073-29.072 16.03 0 29.072 13.042 29.072 29.072v21.921h-58.146v-21.921zm-60.539 43.532c-22.368 0-41.639 13.464-50.167 32.707h-21.074c-7.45 0-13.511-6.061-13.511-13.511v-25.808h287.638v39.318c-35.088 0-119.18 0-152.718 0-8.529-19.242-27.8-32.706-50.168-32.706zm223.056 58.083c0 .544-.443.987-.987.987h-104.725c-.544 0-.987-.443-.987-.987v-10.376h94.029 12.67zm92.429 36.626c-21.976 0-39.854-17.879-39.854-39.854s17.879-39.854 39.854-39.854 39.854 17.879 39.854 39.854-17.878 39.854-39.854 39.854zm-4.726-273.353c0-7.323 5.958-13.28 13.281-13.28s13.28 5.957 13.28 13.28v13.279h-26.562v-13.279zm48.033 28.279c5.065 0 9.673 3.189 11.465 7.936l22.879 60.638h-2.05l-20.166-20.167 1.812-1.812c2.929-2.93 2.929-7.678 0-10.607-2.93-2.928-7.678-2.928-10.607 0l-14.23 14.23c-2.929 2.93-2.929 7.678 0 10.607 1.465 1.464 3.385 2.196 5.304 2.196s3.839-.732 5.304-2.196l1.812-1.812 9.56 9.56h-39.319l-4.934-29.764c-2.321-14.009-14.311-24.176-28.509-24.176h-2.188v-14.634c23.346.001 36.18.002 63.867.001zm-63.867 29.634h2.188c6.828 0 12.594 4.89 13.71 11.628l4.527 27.312h-20.425z"/><path d="m415.237 375.625c-13.353 0-24.216 10.863-24.216 24.217 0 13.353 10.863 24.216 24.216 24.216 13.354 0 24.217-10.863 24.217-24.216 0-13.354-10.863-24.217-24.217-24.217zm0 33.433c-5.082 0-9.216-4.134-9.216-9.216s4.134-9.217 9.216-9.217 9.217 4.135 9.217 9.217-4.135 9.216-9.217 9.216z"/></symbol><symbol id="architect" viewBox="0 0 64 64"><title>architect</title><g><g><path d="m5 56c-2.757 0-5-2.243-5-5s2.243-5 5-5c.553 0 1 .447 1 1s-.447 1-1 1c-1.654 0-3 1.346-3 3s1.346 3 3 3c.553 0 1 .447 1 1s-.447 1-1 1z"/></g><g><path d="m1 5.993c-.553 0-1-.448-1-1 0-2.757 2.243-5 5-5 .553 0 1 .448 1 1s-.447 1-1 1c-1.654 0-3 1.346-3 3 0 .552-.447 1-1 1z"/></g><g><path d="m5 48c-.553 0-1-.447-1-1v-46.007c0-.552.447-1 1-1s1 .448 1 1v46.007c0 .553-.447 1-1 1z"/></g><g><path d="m1 52c-.553 0-1-.447-1-1v-46.007c0-.552.447-1 1-1s1 .448 1 1v46.007c0 .553-.447 1-1 1z"/></g><g><path d="m59.02 56.004h-54.02c-.553 0-1-.447-1-1s.447-1 1-1h54.02c.553 0 1 .447 1 1s-.448 1-1 1z"/></g><g><path d="m63 13.983c-.553 0-1-.448-1-1 0-1.654-1.346-3-3-3-.553 0-1-.448-1-1s.447-1 1-1c2.757 0 5 2.243 5 5 0 .552-.447 1-1 1z"/></g><g><path d="m59 63.992c-.553 0-1-.447-1-1s.447-1 1-1c1.654 0 3-1.346 3-3 0-.553.447-1 1-1s1 .447 1 1c0 2.757-2.243 5-5 5z"/></g><g><path d="m59 63.992c-.553 0-1-.447-1-1v-8.004c0-.553.447-1 1-1s1 .447 1 1v8.004c0 .553-.447 1-1 1z"/></g><g><path d="m63 59.992c-.553 0-1-.447-1-1v-46.009c0-.552.447-1 1-1s1 .448 1 1v46.009c0 .553-.447 1-1 1z"/></g><g><path d="m63 59.992c-.553 0-1-.447-1-1 0-1.656-1.348-3.004-3.004-3.004-.553 0-1-.447-1-1s.447-1 1-1c2.759 0 5.004 2.245 5.004 5.004 0 .553-.447 1-1 1z"/></g></g><g><path d="m5 9.985c-.553 0-1-.448-1-1s.447-1 1-1l54-.002c.553 0 1 .448 1 1s-.447 1-1 1z"/></g><g><path d="m58.019 50.99h-18.021c-.553 0-1-.447-1-1v-6c0-.553.447-1 1-1h18.021c.553 0 1 .447 1 1v6c0 .553-.448 1-1 1zm-17.021-2h16.021v-4h-16.021z"/></g><g><path d="m45.999 50.99c-.553 0-1-.447-1-1v-5.936c0-.553.447-1 1-1s1 .447 1 1v5.936c0 .553-.447 1-1 1z"/></g><g><path d="m57.999 47.99h-12c-.553 0-1-.447-1-1s.447-1 1-1h12c.553 0 1 .447 1 1s-.447 1-1 1z"/></g><g><path d="m28.006 47.99h-18.006c-.553 0-1-.447-1-1s.447-1 1-1h18.006c.553 0 1 .447 1 1s-.447 1-1 1z"/></g><g><path d="m18.997 50.992h-8.997c-.553 0-1-.447-1-1s.447-1 1-1h8.997c.553 0 1 .447 1 1s-.447 1-1 1z"/></g><g><path d="m28.006 44.992h-18.006c-.553 0-1-.447-1-1s.447-1 1-1h18.006c.553 0 1 .447 1 1s-.447 1-1 1z"/></g><g><g><path d="m21.991 39.984c-.553 0-1-.447-1-1v-14.181c0-.552.447-1 1-1s1 .448 1 1v14.181c0 .553-.447 1-1 1z"/></g><g><path d="m45.995 39.984c-.553 0-1-.447-1-1v-14.142c0-.552.447-1 1-1s1 .448 1 1v14.142c0 .553-.447 1-1 1z"/></g><g><path d="m19.993 22.987c-.348 0-.685-.181-.869-.504-.274-.479-.107-1.09.372-1.364l14.001-8c.479-.275 1.09-.108 1.364.372.274.479.107 1.09-.372 1.364l-14.001 8c-.156.089-.327.132-.495.132z"/></g><g><path d="m47.993 22.987c-.168 0-.339-.042-.495-.132l-14.001-8c-.479-.274-.646-.885-.372-1.364.273-.48.883-.647 1.364-.372l14.001 8c.479.274.646.885.372 1.364-.184.323-.521.504-.869.504z"/></g><g><path d="m19.993 26.985c-.348 0-.685-.181-.869-.504-.274-.479-.107-1.09.372-1.364l14.001-7.998c.479-.274 1.09-.108 1.364.372.274.479.107 1.09-.372 1.364l-14.001 7.998c-.156.089-.327.132-.495.132z"/></g><g><path d="m47.993 26.985c-.168 0-.339-.042-.495-.132l-14.001-7.998c-.479-.274-.646-.885-.372-1.364.273-.479.883-.646 1.364-.372l14.001 7.998c.479.274.646.885.372 1.364-.184.323-.521.504-.869.504z"/></g><g><path d="m19.992 26.985c-.553 0-1-.448-1-1v-3.998c0-.552.447-1 1-1s1 .448 1 1v3.998c0 .552-.447 1-1 1z"/></g><g><path d="m47.994 26.985c-.553 0-1-.448-1-1v-3.998c0-.552.447-1 1-1s1 .448 1 1v3.998c0 .552-.447 1-1 1z"/></g></g><g><path d="m35.993 39.984h-4c-.553 0-1-.447-1-1v-7c0-.552.447-1 1-1h4c.553 0 1 .448 1 1v7c0 .553-.447 1-1 1zm-3-2h2v-5h-2z"/></g><g><path d="m18.992 39.984c-.553 0-1-.447-1-1v-2.5c0-.275-.225-.5-.5-.5s-.5.225-.5.5c0 .553-.447 1-1 1s-1-.447-1-1v-1c0-.275-.225-.5-.5-.5s-.5.225-.5.5v1c0 .553-.447 1-1 1s-1-.447-1-1c0-.275-.225-.5-.5-.5s-.5.225-.5.5v2.5c0 .553-.447 1-1 1s-1-.447-1-1v-2.5c0-1.379 1.121-2.5 2.5-2.5.313 0 .612.058.889.163.443-.698 1.225-1.163 2.111-1.163s1.668.465 2.111 1.163c.276-.105.576-.163.889-.163 1.379 0 2.5 1.121 2.5 2.5v2.5c0 .553-.447 1-1 1z"/></g><g><path d="m57.994 39.984c-.553 0-1-.447-1-1v-2.5c0-.275-.225-.5-.5-.5s-.5.225-.5.5c0 .553-.447 1-1 1s-1-.447-1-1v-1c0-.275-.225-.5-.5-.5s-.5.225-.5.5v1c0 .553-.447 1-1 1s-1-.447-1-1c0-.275-.225-.5-.5-.5s-.5.225-.5.5v2.5c0 .553-.447 1-1 1s-1-.447-1-1v-2.5c0-1.379 1.121-2.5 2.5-2.5.313 0 .612.058.889.163.443-.698 1.225-1.163 2.111-1.163s1.668.465 2.111 1.163c.276-.105.576-.163.889-.163 1.379 0 2.5 1.121 2.5 2.5v2.5c0 .553-.447 1-1 1z"/></g><g><path d="m57.994 39.984h-48.002c-.553 0-1-.447-1-1s.447-1 1-1h48.002c.553 0 1 .447 1 1s-.447 1-1 1z"/></g><g><path d="m29 33.995h-4.001c-.553 0-1-.448-1-1v-4.001c0-.552.447-1 1-1h4.001c.553 0 1 .448 1 1v4.001c0 .552-.447 1-1 1zm-3.001-2h2.001v-2.001h-2.001z"/></g><g><path d="m43.001 33.995h-4.001c-.553 0-1-.448-1-1v-4.001c0-.552.447-1 1-1h4.001c.553 0 1 .448 1 1v4.001c0 .552-.447 1-1 1zm-3.001-2h2.001v-2.001h-2.001z"/></g><g><path d="m33.999 28.992c-1.654 0-3-1.346-3-3s1.346-3 3-3 3 1.346 3 3-1.346 3-3 3zm0-4c-.552 0-1 .449-1 1s.448 1 1 1 1-.449 1-1-.448-1-1-1z"/></g><g><g><path d="m54.998 60.008h-45.007c-.553 0-1-.447-1-1s.447-1 1-1h45.007c.553 0 1 .447 1 1s-.447 1-1 1z"/></g><g><path d="m54.998 64.008c-.553 0-1-.447-1-1v-4c0-.553.447-1 1-1s1 .447 1 1v4c0 .553-.447 1-1 1z"/></g><g><path d="m54.998 64.008h-45.007c-.553 0-1-.447-1-1s.447-1 1-1h45.007c.553 0 1 .447 1 1s-.447 1-1 1z"/></g><g><path d="m9.99 64.008c-.15 0-.303-.034-.446-.105l-4-2c-.494-.247-.694-.848-.447-1.342.248-.494.848-.691 1.342-.447l4 2c.494.247.694.848.447 1.342-.176.35-.529.552-.896.552z"/></g><g><path d="m5.992 62.008c-.367 0-.72-.202-.896-.553-.246-.494-.046-1.095.448-1.342l4-2c.494-.246 1.094-.047 1.342.447.247.494.047 1.095-.447 1.342l-4 2c-.144.072-.296.106-.447.106z"/></g><g><path d="m50.998 64.008c-.553 0-1-.447-1-1v-4c0-.553.447-1 1-1s1 .447 1 1v4c0 .553-.447 1-1 1z"/></g><g><path d="m46.998 64.008c-.553 0-1-.447-1-1v-4c0-.553.447-1 1-1s1 .447 1 1v4c0 .553-.447 1-1 1z"/></g></g></symbol></svg>